<svg clip-rule="evenodd" fill-rule="evenodd" height="14" stroke-linejoin="round" stroke-miterlimit="2" viewBox="-1 -1 37 37" width="14" xmlns="http://www.w3.org/2000/svg"><circle cx="17.5" cy="17.5" fill="#fff" r="18.5"/><path d="m17.5 0c9.659 0 17.5 7.841 17.5 17.5s-7.841 17.5-17.5 17.5-17.5-7.841-17.5-17.5 7.841-17.5 17.5-17.5zm8.542 20.372.456-2.362c-1.124-.662-1.863-.929-2.068-1.929v-.001c-.206-1.003.373-1.545 1.141-2.59l-1.348-1.992c-1.245.323-1.972.662-2.828.097h-.001c-.853-.563-.827-1.354-1.022-2.637l-2.362-.456c-.656 1.113-.927 1.862-1.929 2.068h-.001c-1.003.207-1.544-.372-2.59-1.141l-1.992 1.348c.324 1.251.662 1.973.097 2.828-.564.855-1.36.828-2.637 1.023l-.456 2.362c1.111.654 1.862.927 2.068 1.929.207 1.012-.388 1.567-1.141 2.59l1.348 1.993c1.246-.323 1.973-.662 2.828-.097h.001c.854.564.827 1.356 1.022 2.637l2.362.456c.656-1.114.927-1.861 1.936-2.07v.001c.996-.206 1.535.372 2.583 1.143l1.992-1.349c-.324-1.247-.662-1.972-.098-2.828.565-.855 1.364-.829 2.639-1.023zm-9.106.051c-1.614-.311-2.671-1.872-2.359-3.487.311-1.614 1.872-2.671 3.487-2.359 1.614.311 2.671 1.872 2.359 3.487-.311 1.614-1.872 2.671-3.487 2.359z" fill="#2f2f2f"/></svg>