<svg clip-rule="evenodd" fill-rule="evenodd" height="14" stroke-linejoin="round" stroke-miterlimit="2" viewBox="-1 -1 37 37" width="14" xmlns="http://www.w3.org/2000/svg"><circle cx="17.5" cy="17.5" fill="#fff" r="18.5"/><path d="m17.5 0c9.659 0 17.5 7.841 17.5 17.5s-7.841 17.5-17.5 17.5-17.5-7.841-17.5-17.5 7.841-17.5 17.5-17.5zm-6.129 21.346h3.605c.128 1.202.994 1.803 2.596 1.803.801 0 1.41-.173 1.827-.517.417-.345.625-.805.625-1.382 0-.513-.164-.954-.493-1.322-.328-.369-.781-.617-1.358-.745l-1.827-.409c-1.57-.353-2.76-.982-3.569-1.887s-1.214-2.063-1.214-3.473c0-1.17.341-2.167 1.022-2.993.681-.825 1.622-1.398 2.824-1.718l-.024-.457v-1.923h3.605v1.923l-.024.336c1.298.225 2.328.746 3.089 1.563s1.19 1.859 1.286 3.125h-3.606c-.064-.529-.3-.942-.709-1.238-.408-.297-.949-.445-1.622-.445-.705 0-1.254.168-1.647.505-.392.336-.589.761-.589 1.274 0 .448.153.837.457 1.165.305.329.745.557 1.322.686l1.923.432c1.554.353 2.736.99 3.545 1.911.81.921 1.214 2.095 1.214 3.521 0 1.298-.396 2.392-1.19 3.281-.793.89-1.878 1.471-3.256 1.743l.048.649v1.923h-3.606v-1.923l.048-.673c-1.282-.272-2.299-.821-3.052-1.646-.754-.826-1.17-1.855-1.25-3.089z" fill="#008207"/></svg>